<svg width="264" height="100" viewBox="0 0 264 100" fill="none" xmlns="http://www.w3.org/2000/svg">
<path d="M84.8692 30C85.2258 23.2517 84.8214 17.2194 84.0426 12.5431C66.8214 18.269 49.5001 9.20305 42.9921 3C26.5718 12.9249 9.117 14.7699 2.44211 14.4518C-1.96331 69.4203 27.6398 92.3875 42.9921 97C56.3457 90.6361 65.7122 81.5494 72.1547 71.5M84.8692 30H254C258.418 30 262 33.5817 262 38V63.5C262 67.9183 258.418 71.5 254 71.5H72.1547M84.8692 30C84.1971 42.7186 80.8219 57.9805 72.1547 71.5M23 47L37 60L67.5 30" stroke="#008758" stroke-width="4"/>
<path d="M18 13L3 15.5L2 28L4.5 46.5L11 66.5L20.5 80.5L32 91L43.5 97.5L51.5 93L63 83L71 73.5L77.5 62.5L82.5 46.5L85 28L83.5 15.5V12L77.5 14.5L67.5 13L59 12L48.5 7.5L43.5 3L39 4.5L32 8.5L18 13Z" fill="#008758"/>
<path d="M23.5 47.5L36 59.5L66.5 30.5" stroke="white" stroke-width="4" stroke-linecap="round"/>
<path d="M106.142 49.973C106.142 48.409 106.502 47.006 107.223 45.764C107.959 44.522 108.948 43.556 110.19 42.866C111.447 42.1607 112.82 41.808 114.307 41.808C116.009 41.808 117.519 42.2297 118.838 43.073C120.172 43.901 121.138 45.0817 121.736 46.615H118.585C118.171 45.7717 117.596 45.143 116.86 44.729C116.124 44.315 115.273 44.108 114.307 44.108C113.249 44.108 112.306 44.3457 111.478 44.821C110.65 45.2963 109.998 45.9787 109.523 46.868C109.063 47.7573 108.833 48.7923 108.833 49.973C108.833 51.1537 109.063 52.1887 109.523 53.078C109.998 53.9673 110.65 54.6573 111.478 55.148C112.306 55.6233 113.249 55.861 114.307 55.861C115.273 55.861 116.124 55.654 116.86 55.24C117.596 54.826 118.171 54.1973 118.585 53.354H121.736C121.138 54.8873 120.172 56.068 118.838 56.896C117.519 57.724 116.009 58.138 114.307 58.138C112.804 58.138 111.432 57.793 110.19 57.103C108.948 56.3977 107.959 55.424 107.223 54.182C106.502 52.94 106.142 51.537 106.142 49.973ZM132.096 58.161C130.609 58.161 129.236 57.816 127.979 57.126C126.737 56.4207 125.748 55.447 125.012 54.205C124.291 52.9477 123.931 51.537 123.931 49.973C123.931 48.409 124.291 47.006 125.012 45.764C125.748 44.522 126.737 43.556 127.979 42.866C129.236 42.1607 130.609 41.808 132.096 41.808C133.599 41.808 134.971 42.1607 136.213 42.866C137.47 43.556 138.459 44.522 139.18 45.764C139.901 47.006 140.261 48.409 140.261 49.973C140.261 51.537 139.901 52.9477 139.18 54.205C138.459 55.447 137.47 56.4207 136.213 57.126C134.971 57.816 133.599 58.161 132.096 58.161ZM132.096 55.884C133.154 55.884 134.097 55.6463 134.925 55.171C135.753 54.6803 136.397 53.9903 136.857 53.101C137.332 52.1963 137.57 51.1537 137.57 49.973C137.57 48.7923 137.332 47.7573 136.857 46.868C136.397 45.9787 135.753 45.2963 134.925 44.821C134.097 44.3457 133.154 44.108 132.096 44.108C131.038 44.108 130.095 44.3457 129.267 44.821C128.439 45.2963 127.787 45.9787 127.312 46.868C126.852 47.7573 126.622 48.7923 126.622 49.973C126.622 51.1537 126.852 52.1963 127.312 53.101C127.787 53.9903 128.439 54.6803 129.267 55.171C130.095 55.6463 131.038 55.884 132.096 55.884ZM159.677 42.015V58H157.055V47.052L152.179 58H150.362L145.463 47.052V58H142.841V42.015H145.67L151.282 54.55L156.871 42.015H159.677ZM174.301 46.776C174.301 47.5887 174.11 48.3553 173.726 49.076C173.343 49.7967 172.73 50.387 171.886 50.847C171.043 51.2917 169.962 51.514 168.643 51.514H165.745V58H163.123V42.015H168.643C169.87 42.015 170.905 42.2297 171.748 42.659C172.607 43.073 173.243 43.6403 173.657 44.361C174.087 45.0817 174.301 45.8867 174.301 46.776ZM168.643 49.375C169.64 49.375 170.384 49.1527 170.874 48.708C171.365 48.248 171.61 47.604 171.61 46.776C171.61 45.028 170.621 44.154 168.643 44.154H165.745V49.375H168.643ZM179.424 55.884H184.829V58H176.802V42.015H179.424V55.884ZM189.644 44.131V48.823H195.164V50.962H189.644V55.861H195.854V58H187.022V41.992H195.854V44.131H189.644ZM209.41 42.015V44.154H205.155V58H202.533V44.154H198.255V42.015H209.41ZM214.688 44.131V48.823H220.208V50.962H214.688V55.861H220.898V58H212.066V41.992H220.898V44.131H214.688ZM229.348 42.015C231.05 42.015 232.538 42.3447 233.81 43.004C235.098 43.648 236.087 44.5833 236.777 45.81C237.483 47.0213 237.835 48.4397 237.835 50.065C237.835 51.6903 237.483 53.101 236.777 54.297C236.087 55.493 235.098 56.413 233.81 57.057C232.538 57.6857 231.05 58 229.348 58H224.127V42.015H229.348ZM229.348 55.861C231.219 55.861 232.653 55.355 233.649 54.343C234.646 53.331 235.144 51.905 235.144 50.065C235.144 48.2097 234.646 46.7607 233.649 45.718C232.653 44.6753 231.219 44.154 229.348 44.154H226.749V55.861H229.348Z" fill="#008758"/>
</svg>
